HIERARCHY
ROOT Hips
{
    OFFSET 0.000000 0.000000 0.000000
    CHANNELS 6 Xposition Yposition Zposition Zrotation Xrotation Yrotation
    JOINT Spine
    {
        OFFSET -0.000000 14.517291 0.000000
        CHANNELS 3 Zrotation Xrotation Yrotation
        JOINT Spine1
        {
            OFFSET -0.000000 37.558300 0.000000
            CHANNELS 3 Zrotation Xrotation Yrotation
            JOINT Neck
            {
                OFFSET -0.000000 37.404057 3.400369
                CHANNELS 3 Zrotation Xrotation Yrotation
                JOINT Head
                {
                    OFFSET -0.000000 24.785618 -3.540803
                    CHANNELS 3 Zrotation Xrotation Yrotation
                    End Site
                    {
                        OFFSET -0.000000 35.408028 0.000000
                    }
                }
            }
            JOINT LeftShoulder
            {
                OFFSET 6.992933 33.973492 -0.192664
                CHANNELS 3 Zrotation Xrotation Yrotation
                JOINT LeftArm
                {
                    OFFSET 21.527611 0.000000 0.000000
                    CHANNELS 3 Zrotation Xrotation Yrotation
                    JOINT LeftForeArm
                    {
                        OFFSET 56.353916 0.000000 0.000000
                        CHANNELS 3 Zrotation Xrotation Yrotation
                        JOINT LeftHand
                        {
                            OFFSET 47.774071 0.000000 0.000000
                            CHANNELS 3 Zrotation Xrotation Yrotation
                            End Site
                            {
                                OFFSET 26.556021 0.000000 0.000000
                            }
                        }
                    }
                }
            }
            JOINT RightShoulder
            {
                OFFSET -7.065357 33.973492 -0.192664
                CHANNELS 3 Zrotation Xrotation Yrotation
                JOINT RightArm
                {
                    OFFSET -21.527611 0.000000 0.000000
                    CHANNELS 3 Zrotation Xrotation Yrotation
                    JOINT RightForeArm
                    {
                        OFFSET -56.353916 0.000000 0.000000
                        CHANNELS 3 Zrotation Xrotation Yrotation
                        JOINT RightHand
                        {
                            OFFSET -47.774071 0.000000 0.000000
                            CHANNELS 3 Zrotation Xrotation Yrotation
                            End Site
                            {
                                OFFSET -26.556021 0.000000 0.000000
                            }
                        }
                    }
                }
            }
        }
    }
    JOINT LeftUpLeg
    {
        OFFSET 17.704014 0.000000 0.000000
        CHANNELS 3 Zrotation Xrotation Yrotation
        JOINT LeftLeg
        {
            OFFSET -0.000000 -81.181816 0.000000
            CHANNELS 3 Zrotation Xrotation Yrotation
            JOINT LeftFoot
            {
                OFFSET -0.000000 -62.821102 0.000000
                CHANNELS 3 Zrotation Xrotation Yrotation
                JOINT LeftToeBase
                {
                    OFFSET -0.000000 -11.507608 26.556021
                    CHANNELS 3 Zrotation Xrotation Yrotation
                    End Site
                    {
                        OFFSET -0.000000 0.000000 7.081605
                    }
                }
            }
        }
    }
    JOINT RightUpLeg
    {
        OFFSET -17.704014 0.000000 0.000000
        CHANNELS 3 Zrotation Xrotation Yrotation
        JOINT RightLeg
        {
            OFFSET -0.000000 -81.181816 0.000000
            CHANNELS 3 Zrotation Xrotation Yrotation
            JOINT RightFoot
            {
                OFFSET -0.000000 -62.821102 0.000000
                CHANNELS 3 Zrotation Xrotation Yrotation
                JOINT RightToeBase
                {
                    OFFSET -0.000000 -11.507608 26.556021
                    CHANNELS 3 Zrotation Xrotation Yrotation
                    End Site
                    {
                        OFFSET -0.000000 0.000000 7.081605
                    }
                }
            }
        }
    }
}
MOTION
Frames:    13
Frame Time:    0.008333
50.574448    154.148010    -101.227257    -0.770432    6.748595    -26.600527    -2.401792    -1.507187    -18.866461    -2.385909    -0.511763    -6.288953    20.466576    -1.459551    1.736251    -1.407887    5.287764    -1.673540    17.996817    -5.176906    -28.020519    -20.424597    -33.860191    -44.529018    -0.094447    -53.804367    -77.851662    -35.157871    -43.025795    -48.332188    -11.245136    -0.851630    -16.814560    19.561199    18.657566    5.595463    22.313469    25.121538    -3.530045    -17.981152    22.383440    22.988401    -0.059395    -2.489258    21.819128    -14.712215    32.856571    -2.278837    12.098148    -32.594624    55.255608    0.000000    0.000000    0.000000    8.594196    -39.864590    27.489641    9.919718    21.241184    -3.275891    -2.221089    19.620573    -1.943148    0.000000    0.000000    0.000000    
50.489372    154.224564    -101.176048    -0.742373    6.704135    -26.176802    -2.439678    -1.520402    -18.896183    -2.437460    -0.498817    -6.298557    20.514595    -1.436000    1.722685    -1.509614    5.203267    -1.702332    18.020954    -5.161178    -28.034805    -20.408592    -33.763420    -44.532642    -0.005413    -53.848763    -77.746384    -35.043365    -43.100471    -48.225677    -11.206196    -0.873704    -16.841406    19.554008    18.599964    5.430829    22.494921    25.197731    -3.641392    -17.947735    22.501408    22.936687    -0.086292    -2.377022    21.656675    -14.618907    32.703854    -2.496742    11.977934    -32.482655    55.082970    0.000000    0.000000    0.000000    8.305225    -39.870892    27.249264    9.959014    21.364281    -3.411084    -2.219349    19.504723    -2.095608    0.000000    0.000000    0.000000    
50.396477    154.299850    -101.124588    -0.721094    6.678904    -25.726501    -2.484137    -1.543438    -18.916121    -2.434701    -0.489145    -6.304626    20.511518    -1.408009    1.690599    -1.602182    5.102593    -1.740615    18.030499    -5.134115    -28.037952    -20.454769    -33.717514    -44.580338    -0.000229    -53.876396    -77.676460    -35.110130    -43.073479    -48.344864    -11.205795    -0.853011    -16.895630    19.562962    18.611206    5.283288    22.603754    25.299500    -3.721638    -17.897995    22.633406    22.933947    -0.083358    -2.290438    21.428112    -14.570016    32.578411    -2.684796    11.859519    -32.383625    54.936108    0.000000    0.000000    0.000000    8.036064    -39.878948    26.957312    9.942905    21.488691    -3.496232    -2.174976    19.386433    -2.258359    0.000000    0.000000    0.000000    
50.294624    154.373795    -101.068413    -0.716166    6.635686    -25.234468    -2.523482    -1.545011    -18.941484    -2.425373    -0.479186    -6.312645    20.474667    -1.380198    1.673636    -1.643751    4.994023    -1.752652    18.009901    -5.126637    -28.072437    -20.433872    -33.690220    -44.545605    -0.157075    -53.854099    -77.767838    -34.956612    -43.234058    -48.204590    -11.232645    -0.893894    -16.958204    19.567150    18.606596    5.146297    22.768879    25.430605    -3.896361    -17.956200    22.780176    23.023149    -0.074826    -2.181670    21.226480    -14.466131    32.469524    -2.968498    11.736986    -32.300858    54.804821    0.000000    0.000000    0.000000    7.736758    -39.856598    26.646631    9.946776    21.598120    -3.548019    -2.123880    19.256021    -2.486541    0.000000    0.000000    0.000000    
50.189285    154.450302    -101.007751    -0.722787    6.600889    -24.723267    -2.498583    -1.568963    -18.965879    -2.499150    -0.470202    -6.320825    20.505735    -1.386568    1.687126    -1.751756    4.951410    -1.756412    18.015108    -5.104988    -28.056215    -20.287144    -33.483143    -44.492069    0.151667    -54.050900    -77.457397    -35.053501    -43.236179    -48.294182    -11.228106    -0.904942    -16.974380    19.604834    18.624702    4.970234    22.848471    25.488482    -4.015602    -17.939871    22.868238    23.016537    -0.050651    -2.067503    21.050123    -14.351694    32.346355    -3.259765    11.630349    -32.192612    54.637573    0.000000    0.000000    0.000000    7.441445    -39.832672    26.355015    9.965938    21.702320    -3.626650    -2.090695    19.126970    -2.722339    0.000000    0.000000    0.000000    
50.067722    154.516846    -100.930168    -0.730462    6.554226    -24.191055    -2.498760    -1.605238    -18.989414    -2.549914    -0.440143    -6.327935    20.486849    -1.404527    1.704661    -1.777869    4.915876    -1.741402    18.023144    -5.057490    -28.006376    -20.303663    -33.490719    -44.552837    0.010614    -54.020302    -77.485840    -35.024303    -43.300510    -48.261753    -11.226581    -0.888624    -17.038040    19.620510    18.665117    4.879653    22.897316    25.476013    -4.129476    -17.835426    22.901613    22.995996    -0.013124    -1.948290    20.838457    -14.276417    32.250607    -3.479743    11.490804    -32.125538    54.443577    0.000000    0.000000    0.000000    7.138982    -39.776737    26.045347    9.961704    21.810341    -3.547352    -2.008796    18.936216    -3.124699    0.000000    0.000000    0.000000    
49.948566    154.582123    -100.859306    -0.733642    6.500090    -23.657204    -2.477979    -1.630044    -18.974670    -2.636859    -0.440444    -6.323294    20.520332    -1.319840    1.711112    -1.878448    4.768969    -1.737238    18.018595    -5.030599    -28.019110    -20.179146    -33.462025    -44.509655    0.071543    -54.037537    -77.291527    -35.030838    -43.271675    -48.305592    -11.232901    -0.895719    -17.065681    19.642414    18.694067    4.718742    22.966747    25.503290    -4.248375    -17.585049    23.041462    22.730976    0.017357    -1.828906    20.620628    -14.201609    32.150566    -3.678174    11.348634    -32.042500    54.233849    0.000000    0.000000    0.000000    6.840764    -39.729607    25.779133    9.965734    21.938908    -3.614938    -1.916039    18.746788    -3.438997    0.000000    0.000000    0.000000    
49.814423    154.646240    -100.790283    -0.758555    6.449721    -23.083673    -2.470774    -1.651160    -18.965857    -2.690127    -0.413847    -6.319811    20.488253    -1.320301    1.717627    -1.861148    4.705817    -1.724476    18.036421    -5.039649    -28.011221    -20.119324    -33.396164    -44.464546    0.170995    -54.070164    -77.122238    -35.082176    -43.208805    -48.400536    -11.215066    -0.878557    -17.136528    19.616268    18.667179    4.651305    23.088678    25.486828    -4.419536    -17.582682    23.063881    22.716301    0.081931    -1.703221    20.381340    -14.138391    32.052364    -3.916813    11.254766    -31.951714    54.049801    0.000000    0.000000    0.000000    6.540142    -39.666809    25.449886    9.958632    22.055527    -3.702142    -1.890106    18.553574    -3.669368    0.000000    0.000000    0.000000    
49.680702    154.713364    -100.727844    -0.790461    6.406420    -22.496569    -2.433623    -1.688973    -18.961180    -2.755426    -0.374845    -6.317464    20.462463    -1.357939    1.747727    -1.885873    4.712032    -1.698258    18.022455    -5.103368    -27.937887    -20.069683    -33.274357    -44.439014    0.373471    -54.110401    -76.825684    -35.349655    -42.989223    -48.590797    -11.225278    -0.808112    -17.220707    19.570604    18.531441    4.643965    23.300720    25.676895    -4.674633    -17.874516    23.226267    22.931080    0.165514    -1.592607    20.141922    -14.090163    31.967127    -4.118639    11.148434    -31.870300    53.848644    0.000000    0.000000    0.000000    6.244524    -39.612232    25.118998    9.957658    22.182678    -3.815496    -1.868232    18.379425    -3.895729    0.000000    0.000000    0.000000    
49.536449    154.773941    -100.661682    -0.817150    6.354904    -21.914852    -2.429555    -1.705627    -18.916649    -2.807572    -0.368720    -6.302537    20.491659    -1.321260    1.773528    -1.946423    4.628606    -1.677077    18.011715    -5.155414    -27.899904    -19.575245    -32.728329    -44.211090    0.771188    -54.690483    -76.488907    -35.369873    -43.465958    -48.642578    -11.226748    -0.887752    -17.187435    19.575628    18.636084    4.428754    23.345156    25.694162    -4.767283    -17.794968    23.285227    22.885838    0.245804    -1.476445    19.927044    -14.023065    31.892925    -4.331940    11.018709    -31.806185    53.624146    0.000000    0.000000    0.000000    5.956240    -39.561939    24.814701    9.965887    22.333183    -3.986165    -1.827237    18.184624    -4.096438    0.000000    0.000000    0.000000    
49.393612    154.836731    -100.590729    -0.853616    6.292642    -21.294884    -2.386120    -1.729882    -18.881069    -2.897813    -0.340919    -6.290316    20.540892    -1.310279    1.807894    -2.055325    4.555412    -1.659935    18.019175    -5.081323    -27.921785    -19.341578    -32.700123    -44.066059    0.947060    -54.806702    -76.290474    -35.406883    -43.485561    -48.692120    -11.252974    -0.901348    -17.205856    19.578028    18.617619    4.321217    23.415075    25.721272    -4.856966    -17.650225    23.387318    22.703909    0.328857    -1.366488    19.713400    -13.926908    31.846676    -4.573343    10.884045    -31.736311    53.411808    0.000000    0.000000    0.000000    5.642464    -39.493687    24.494188    9.986225    22.481182    -4.167593    -1.795059    17.974648    -4.307676    0.000000    0.000000    0.000000    
49.237488    154.892899    -100.517296    -0.899655    6.230180    -20.669428    -2.377488    -1.751319    -18.858902    -2.931433    -0.319028    -6.282355    20.460991    -1.400960    1.920456    -1.885688    4.669693    -1.526731    18.011864    -5.121787    -27.890087    -19.251686    -32.648727    -43.935047    0.739768    -54.807514    -76.476280    -35.125942    -43.765488    -48.482952    -11.263280    -0.875759    -17.134089    19.564018    18.631611    4.206401    23.300514    24.919153    -4.448277    -16.605377    22.814140    21.787840    0.437784    -1.240936    19.512484    -13.850829    31.792154    -4.844586    10.781715    -31.666723    53.211994    0.000000    0.000000    0.000000    5.342560    -39.425724    24.203434    10.019632    22.647160    -4.338155    -1.731688    17.747292    -4.568826    0.000000    0.000000    0.000000    
49.085903    154.943939    -100.450874    -0.926155    6.178499    -20.036615    -2.349259    -1.799583    -18.812778    -3.039074    -0.300920    -6.266613    20.521870    -1.323189    1.958526    -1.949455    4.559984    -1.491338    18.042416    -5.125456    -27.844606    -19.157858    -32.635799    -43.850815    0.260816    -54.795292    -76.881805    -34.699337    -44.260551    -48.174019    -11.217829    -0.732605    -17.184168    19.526806    18.624414    4.287895    23.343761    25.457430    -4.853116    -17.093666    23.222445    22.687981    0.537914    -1.148400    19.233913    -13.822131    31.742302    -5.064458    10.710487    -31.588009    53.059544    0.000000    0.000000    0.000000    5.031460    -39.383884    23.880791    10.035703    22.836325    -4.516800    -1.676020    17.517269    -4.792570    0.000000    0.000000    0.000000    
